<svg id="svg" version="1.1" xmlns="http://www.w3.org/2000/svg" xmlns:xlink="http://www.w3.org/1999/xlink" width="400" height="373.33333333333337" viewBox="0, 0, 400,373.33333333333337"><g id="svgg"><path id="path0" d="M329.175 0.935 C 329.120 0.991,327.070 1.093,324.620 1.162 C 322.171 1.230,318.892 1.368,317.333 1.468 C 315.775 1.568,313.750 1.672,312.833 1.698 C 311.917 1.724,311.018 1.834,310.835 1.942 C 310.653 2.051,309.753 2.163,308.835 2.191 C 307.918 2.220,307.167 2.273,307.167 2.311 C 307.167 2.392,305.592 2.518,301.233 2.783 C 299.437 2.892,297.803 3.083,297.603 3.206 C 297.402 3.330,296.622 3.467,295.869 3.510 C 291.938 3.734,288.439 4.111,287.960 4.361 C 287.664 4.516,287.339 4.561,287.239 4.461 C 287.139 4.361,286.726 4.456,286.322 4.673 C 285.739 4.985,285.640 4.979,285.845 4.648 C 286.026 4.356,285.968 4.314,285.652 4.509 C 285.404 4.662,284.743 4.782,284.184 4.776 C 283.624 4.769,282.998 4.895,282.792 5.054 C 282.586 5.214,282.209 5.265,281.953 5.166 C 281.697 5.068,280.516 5.145,279.327 5.337 C 278.139 5.529,276.717 5.744,276.167 5.815 C 275.617 5.885,275.167 5.967,275.167 5.997 C 275.167 6.027,274.717 6.102,274.167 6.164 C 273.617 6.226,272.567 6.363,271.833 6.468 C 271.100 6.573,270.141 6.660,269.701 6.662 C 269.262 6.664,268.671 6.854,268.387 7.083 C 267.964 7.426,267.922 7.417,268.154 7.032 C 268.362 6.687,268.316 6.638,267.979 6.846 C 267.727 7.002,267.067 7.155,266.511 7.186 C 265.955 7.217,265.500 7.273,265.500 7.311 C 265.500 7.348,264.825 7.438,264.000 7.511 C 263.175 7.583,262.125 7.747,261.667 7.875 C 261.208 8.004,260.635 8.075,260.392 8.034 C 260.149 7.993,259.708 8.156,259.411 8.396 C 258.954 8.767,258.917 8.757,259.167 8.333 C 259.398 7.941,259.358 7.907,258.981 8.174 C 258.716 8.361,258.087 8.496,257.583 8.474 C 257.079 8.451,256.667 8.534,256.667 8.659 C 256.667 8.783,256.217 8.818,255.667 8.738 C 255.099 8.654,254.667 8.742,254.667 8.940 C 254.667 9.132,254.254 9.300,253.750 9.315 C 250.964 9.393,250.333 9.472,250.333 9.742 C 250.333 9.905,250.187 9.949,250.009 9.839 C 249.637 9.609,244.333 10.384,244.333 10.668 C 244.333 10.771,243.696 10.889,242.917 10.931 C 241.115 11.027,240.406 11.150,240.144 11.412 C 240.029 11.527,239.724 11.540,239.467 11.441 C 239.210 11.343,238.737 11.368,238.417 11.498 C 238.096 11.628,237.159 11.793,236.335 11.863 C 235.510 11.934,234.791 12.128,234.735 12.294 C 234.680 12.460,234.344 12.520,233.989 12.427 C 233.634 12.334,233.079 12.368,232.755 12.502 C 232.431 12.636,231.792 12.789,231.333 12.841 C 230.505 12.934,229.563 13.097,227.333 13.531 C 226.692 13.656,225.904 13.770,225.583 13.784 C 225.262 13.798,225.000 13.927,225.000 14.071 C 225.000 14.215,224.887 14.304,224.750 14.268 C 224.364 14.167,220.129 14.801,219.917 14.991 C 219.871 15.032,219.083 15.128,218.167 15.203 C 217.250 15.279,216.450 15.490,216.388 15.672 C 216.327 15.855,216.146 15.923,215.986 15.825 C 215.597 15.584,211.333 16.382,211.333 16.695 C 211.333 16.830,211.071 16.899,210.750 16.847 C 210.429 16.795,210.018 16.840,209.836 16.946 C 209.654 17.052,208.910 17.187,208.183 17.245 C 207.456 17.304,206.780 17.460,206.681 17.592 C 206.494 17.842,205.715 18.012,204.417 18.089 C 204.004 18.113,203.667 18.216,203.667 18.317 C 203.667 18.417,203.329 18.522,202.917 18.549 C 201.359 18.650,200.667 18.818,200.667 19.093 C 200.667 19.250,200.367 19.283,200.000 19.167 C 199.626 19.048,199.333 19.107,199.333 19.300 C 199.333 19.490,199.124 19.565,198.867 19.467 C 198.611 19.368,198.306 19.442,198.190 19.629 C 198.074 19.817,197.774 19.892,197.523 19.796 C 197.272 19.700,196.977 19.767,196.867 19.946 C 196.756 20.125,196.343 20.186,195.948 20.083 C 195.487 19.963,195.308 20.022,195.448 20.250 C 195.585 20.470,195.428 20.542,195.035 20.439 C 194.686 20.348,194.049 20.469,193.617 20.708 C 193.186 20.947,192.721 21.167,192.583 21.197 C 192.446 21.226,192.221 21.286,192.083 21.330 C 191.946 21.374,191.683 21.439,191.500 21.473 C 190.108 21.737,187.905 23.243,188.203 23.726 C 188.297 23.877,188.130 24.000,187.833 24.000 C 187.537 24.000,187.387 24.150,187.500 24.333 C 187.613 24.517,187.563 24.667,187.389 24.667 C 187.214 24.667,186.982 24.899,186.873 25.184 C 186.738 25.535,186.807 25.622,187.087 25.453 C 187.317 25.315,187.278 25.478,187.000 25.821 C 186.456 26.489,186.288 59.090,186.773 69.833 C 186.897 72.583,187.010 75.919,187.023 77.245 C 187.037 78.572,187.152 79.721,187.280 79.800 C 187.407 79.879,187.485 81.042,187.452 82.384 C 187.419 83.726,187.457 84.931,187.537 85.060 C 187.617 85.190,187.755 86.691,187.844 88.398 C 187.933 90.104,188.084 92.175,188.179 93.000 C 188.375 94.705,188.565 96.857,188.797 100.000 C 188.975 102.414,189.249 104.906,189.529 106.667 C 189.632 107.308,189.722 108.394,189.729 109.079 C 189.737 109.764,189.839 110.268,189.955 110.198 C 190.072 110.129,190.201 111.068,190.243 112.286 C 190.310 114.241,190.503 115.833,190.674 115.833 C 190.724 115.833,190.857 117.194,191.074 119.917 C 191.107 120.329,191.244 120.667,191.379 120.667 C 191.514 120.667,191.540 121.192,191.435 121.833 C 191.331 122.475,191.387 123.000,191.559 123.000 C 191.731 123.000,191.840 123.450,191.802 124.001 C 191.764 124.551,191.854 125.076,192.002 125.168 C 192.150 125.259,192.193 125.632,192.098 125.995 C 192.003 126.359,192.039 126.921,192.178 127.245 C 192.317 127.569,192.465 128.208,192.506 128.667 C 192.546 129.125,192.612 129.500,192.651 129.500 C 192.691 129.500,192.771 130.124,192.829 130.886 C 192.888 131.648,193.052 132.623,193.193 133.053 C 193.538 134.098,193.666 134.947,193.677 136.264 C 193.682 136.867,193.794 137.294,193.926 137.212 C 194.179 137.056,194.335 138.094,194.334 139.917 C 194.334 140.512,194.463 141.000,194.621 141.000 C 194.779 141.000,194.867 141.375,194.817 141.833 C 194.767 142.292,194.880 142.667,195.068 142.667 C 195.257 142.667,195.335 142.956,195.243 143.310 C 195.150 143.664,195.338 145.084,195.659 146.466 C 195.980 147.848,196.163 149.059,196.066 149.156 C 195.969 149.254,196.026 149.334,196.194 149.335 C 196.362 149.336,196.536 149.964,196.580 150.730 C 196.624 151.497,196.774 152.208,196.914 152.312 C 197.053 152.415,197.206 153.092,197.255 153.817 C 197.303 154.541,197.453 155.216,197.588 155.317 C 197.723 155.417,197.869 155.950,197.913 156.500 C 198.039 158.090,198.097 158.333,198.345 158.333 C 198.474 158.333,198.572 158.596,198.562 158.917 C 198.540 159.618,198.973 161.969,199.252 162.667 C 199.363 162.942,199.480 163.416,199.513 163.721 C 199.546 164.025,199.692 164.550,199.838 164.887 C 199.983 165.224,200.067 165.779,200.024 166.120 C 199.981 166.461,200.070 166.663,200.223 166.569 C 200.375 166.475,200.540 166.939,200.588 167.599 C 200.637 168.260,200.787 168.883,200.922 168.983 C 201.213 169.202,201.357 169.774,201.501 171.296 C 201.561 171.917,201.739 172.517,201.899 172.629 C 202.058 172.741,202.174 173.058,202.156 173.333 C 202.137 173.608,202.273 174.133,202.457 174.500 C 202.642 174.867,202.821 175.392,202.855 175.667 C 203.032 177.071,203.400 178.500,203.748 179.129 C 203.962 179.516,204.096 180.096,204.047 180.417 C 203.998 180.737,204.126 181.000,204.332 181.000 C 204.538 181.000,204.623 181.134,204.522 181.298 C 204.421 181.462,204.555 182.116,204.821 182.751 C 205.086 183.387,205.371 184.265,205.453 184.704 C 205.780 186.451,206.083 187.321,206.313 187.179 C 206.447 187.097,206.556 187.502,206.556 188.079 C 206.556 188.657,206.731 189.188,206.947 189.260 C 207.162 189.332,207.263 189.512,207.171 189.660 C 207.079 189.808,207.255 190.508,207.562 191.215 C 207.869 191.922,208.175 192.854,208.243 193.287 C 208.311 193.719,208.584 194.406,208.851 194.813 C 209.117 195.220,209.245 195.644,209.134 195.754 C 209.024 195.865,209.058 196.153,209.212 196.394 C 209.365 196.636,209.502 196.908,209.516 197.000 C 209.671 197.967,210.489 199.943,210.685 199.822 C 210.824 199.736,210.865 199.944,210.776 200.283 C 210.688 200.623,210.826 201.112,211.084 201.370 C 211.342 201.628,211.492 202.025,211.416 202.253 C 211.340 202.481,211.449 202.667,211.659 202.667 C 211.868 202.667,211.949 202.813,211.839 202.991 C 211.729 203.169,212.020 204.149,212.486 205.167 C 212.952 206.186,213.333 207.240,213.333 207.510 C 213.333 207.779,213.479 208.000,213.656 208.000 C 213.834 208.000,213.893 208.225,213.787 208.500 C 213.682 208.775,213.770 209.000,213.984 209.000 C 214.198 209.000,214.288 209.137,214.184 209.305 C 214.081 209.473,214.148 209.661,214.335 209.723 C 214.521 209.785,214.742 210.193,214.826 210.629 C 215.076 211.928,216.077 214.438,216.716 215.371 C 217.045 215.850,217.223 216.333,217.112 216.444 C 217.001 216.555,217.155 217.020,217.455 217.478 C 217.755 217.935,218.000 218.549,218.000 218.841 C 218.000 219.134,218.148 219.281,218.330 219.169 C 218.512 219.056,218.578 219.177,218.477 219.440 C 218.377 219.701,218.566 220.185,218.897 220.517 C 219.229 220.848,219.463 221.167,219.417 221.226 C 219.141 221.580,219.392 222.336,219.718 222.135 C 219.934 222.001,220.013 222.042,219.898 222.228 C 219.786 222.411,219.987 223.108,220.347 223.779 C 220.706 224.449,221.000 225.223,221.000 225.499 C 221.000 225.774,221.150 226.000,221.333 226.000 C 221.517 226.000,221.634 226.113,221.594 226.250 C 221.462 226.707,222.776 229.305,223.053 229.134 C 223.203 229.041,223.236 229.198,223.127 229.483 C 223.018 229.767,223.065 230.000,223.232 230.000 C 223.399 230.000,223.805 230.750,224.134 231.667 C 224.464 232.583,224.877 233.333,225.053 233.333 C 225.229 233.333,225.280 233.483,225.167 233.667 C 225.053 233.850,225.120 234.000,225.314 234.000 C 225.508 234.000,225.635 234.112,225.597 234.250 C 225.504 234.582,226.718 237.111,227.094 237.371 C 227.257 237.483,227.372 237.633,227.350 237.704 C 227.210 238.155,228.128 239.960,228.409 239.787 C 228.601 239.668,228.685 239.777,228.600 240.035 C 228.515 240.288,228.871 241.215,229.390 242.096 C 229.909 242.976,230.333 243.816,230.333 243.963 C 230.333 244.110,230.620 244.489,230.970 244.806 C 231.320 245.123,231.696 245.737,231.805 246.171 C 232.025 247.049,233.977 250.363,234.499 250.745 C 234.721 250.908,234.721 250.995,234.500 251.005 C 234.317 251.013,234.429 251.173,234.750 251.360 C 235.071 251.547,235.333 251.924,235.333 252.198 C 235.333 252.471,235.933 253.619,236.667 254.747 C 237.400 255.876,238.000 256.928,238.000 257.086 C 238.000 257.244,238.132 257.291,238.293 257.192 C 238.454 257.092,238.669 257.421,238.771 257.922 C 238.873 258.423,239.489 259.413,240.141 260.121 C 240.793 260.829,241.229 261.565,241.111 261.756 C 240.987 261.957,241.058 262.003,241.282 261.865 C 241.631 261.649,241.821 262.065,241.698 262.775 C 241.672 262.926,241.774 262.973,241.925 262.880 C 242.076 262.786,242.391 263.016,242.625 263.390 C 242.973 263.948,242.971 264.024,242.608 263.814 C 242.365 263.673,242.588 263.958,243.102 264.447 C 243.657 264.975,243.940 265.505,243.799 265.751 C 243.667 265.980,243.682 266.056,243.830 265.922 C 244.178 265.607,244.976 266.650,244.989 267.436 C 244.995 267.768,245.150 267.947,245.333 267.833 C 245.517 267.720,245.667 267.833,245.667 268.084 C 245.667 268.335,245.958 268.853,246.313 269.235 C 246.669 269.617,246.869 270.020,246.758 270.131 C 246.647 270.242,246.814 270.333,247.131 270.333 C 247.447 270.333,247.616 270.479,247.506 270.657 C 247.243 271.082,248.318 272.715,248.703 272.477 C 248.866 272.377,249.000 272.603,249.000 272.980 C 249.000 273.358,249.140 273.667,249.311 273.667 C 249.482 273.667,249.710 273.945,249.818 274.285 C 249.926 274.625,250.457 275.337,250.998 275.868 C 251.539 276.399,251.986 276.987,251.991 277.176 C 251.996 277.364,252.413 277.920,252.917 278.410 C 254.037 279.501,254.972 280.581,255.083 280.917 C 255.129 281.054,255.274 281.131,255.405 281.087 C 255.536 281.044,255.557 281.231,255.452 281.504 C 255.348 281.777,255.396 282.000,255.559 282.000 C 255.723 282.000,256.117 282.441,256.435 282.980 C 256.753 283.519,257.313 284.054,257.678 284.170 C 258.044 284.286,258.260 284.515,258.159 284.679 C 258.058 284.842,258.270 285.270,258.629 285.629 C 258.989 285.989,259.450 286.594,259.653 286.975 C 259.857 287.355,260.233 287.667,260.489 287.667 C 260.745 287.667,261.060 288.004,261.188 288.417 C 261.316 288.829,261.838 289.617,262.348 290.167 C 262.858 290.717,263.872 291.842,264.602 292.667 C 267.356 295.780,267.714 296.153,267.476 295.667 C 267.336 295.380,267.519 295.452,267.906 295.833 C 268.278 296.200,268.529 296.592,268.465 296.705 C 268.300 296.997,269.508 298.036,269.777 297.834 C 269.900 297.742,269.931 297.760,269.848 297.874 C 269.588 298.229,271.387 300.339,271.755 300.112 C 271.947 299.994,272.014 300.042,271.905 300.218 C 271.683 300.576,273.176 302.091,274.083 302.428 C 274.404 302.548,274.667 302.798,274.667 302.984 C 274.667 303.170,275.342 304.026,276.167 304.887 C 276.992 305.748,277.667 306.332,277.667 306.185 C 277.667 306.039,277.890 306.104,278.163 306.330 C 278.436 306.557,278.588 306.858,278.500 307.000 C 278.412 307.142,278.976 307.785,279.753 308.427 C 280.531 309.070,282.024 310.425,283.071 311.438 C 284.118 312.452,285.245 313.366,285.574 313.471 C 285.903 313.575,286.321 313.986,286.503 314.383 C 286.685 314.780,287.345 315.376,287.970 315.706 C 288.595 316.037,289.270 316.485,289.470 316.702 C 289.742 316.998,289.707 317.032,289.333 316.838 C 289.058 316.696,289.358 317.033,290.000 317.589 C 290.642 318.144,291.302 318.516,291.468 318.415 C 291.634 318.313,291.667 318.397,291.541 318.601 C 291.408 318.816,291.736 319.191,292.322 319.494 C 292.878 319.782,293.333 320.160,293.333 320.336 C 293.333 320.511,293.708 320.748,294.167 320.863 C 294.625 320.978,295.000 321.263,295.000 321.496 C 295.000 321.729,295.450 322.106,296.000 322.333 C 296.550 322.561,297.000 322.893,297.000 323.070 C 297.000 323.421,298.343 324.638,298.750 324.656 C 298.976 324.666,299.305 324.934,301.028 326.515 C 301.318 326.782,301.731 327.000,301.945 327.000 C 302.158 327.000,302.333 327.175,302.333 327.389 C 302.333 327.603,302.426 327.685,302.539 327.572 C 302.653 327.458,303.290 327.882,303.956 328.513 C 304.622 329.144,305.338 329.662,305.548 329.664 C 305.757 329.665,306.015 329.892,306.121 330.167 C 306.226 330.442,306.626 330.667,307.009 330.667 C 307.456 330.667,307.620 330.806,307.465 331.057 C 307.303 331.319,307.406 331.377,307.779 331.234 C 308.141 331.095,308.333 331.191,308.333 331.510 C 308.333 331.780,308.563 332.000,308.844 332.000 C 309.125 332.000,309.441 332.225,309.546 332.500 C 309.652 332.775,309.947 333.000,310.202 333.000 C 310.458 333.000,310.667 333.150,310.667 333.333 C 310.667 333.517,310.976 333.667,311.353 333.667 C 311.730 333.667,311.947 333.817,311.833 334.000 C 311.720 334.183,311.792 334.333,311.994 334.333 C 312.196 334.333,312.657 334.609,313.020 334.947 C 313.382 335.284,314.088 335.765,314.589 336.016 C 315.090 336.266,315.762 336.688,316.083 336.954 C 316.404 337.219,316.667 337.332,316.667 337.205 C 316.667 337.077,317.079 337.356,317.583 337.823 C 318.087 338.291,318.686 338.602,318.913 338.515 C 319.140 338.428,319.290 338.502,319.246 338.679 C 319.162 339.019,320.221 339.728,321.750 340.356 C 322.254 340.563,322.667 340.851,322.667 340.996 C 322.667 341.142,323.042 341.355,323.500 341.470 C 323.958 341.585,324.333 341.827,324.333 342.006 C 324.333 342.186,324.489 342.333,324.680 342.333 C 324.871 342.333,325.457 342.651,325.982 343.039 C 326.507 343.428,327.085 343.653,327.267 343.541 C 327.448 343.429,327.686 343.569,327.794 343.852 C 327.903 344.136,328.701 344.681,329.567 345.064 C 330.433 345.447,331.345 345.964,331.594 346.214 C 332.004 346.623,332.755 346.801,333.152 346.583 C 333.236 346.537,333.499 346.752,333.736 347.061 C 334.334 347.839,337.338 349.370,337.758 349.110 C 337.973 348.977,338.000 349.063,337.830 349.338 C 337.630 349.662,337.711 349.721,338.129 349.560 C 338.444 349.440,338.622 349.470,338.524 349.628 C 338.344 349.918,341.269 351.210,341.775 351.063 C 341.926 351.019,341.955 351.137,341.838 351.325 C 341.722 351.513,341.786 351.685,341.980 351.708 C 342.174 351.731,342.446 351.789,342.583 351.837 C 342.721 351.884,343.171 352.033,343.583 352.167 C 343.996 352.301,344.333 352.539,344.333 352.695 C 344.333 352.851,344.558 352.893,344.833 352.787 C 345.108 352.682,345.333 352.774,345.333 352.992 C 345.333 353.210,345.511 353.330,345.729 353.257 C 345.947 353.184,346.408 353.408,346.755 353.755 C 347.101 354.101,347.606 354.300,347.876 354.196 C 348.153 354.090,348.279 354.152,348.164 354.337 C 347.978 354.638,348.432 354.814,349.101 354.700 C 349.249 354.675,349.597 354.882,349.875 355.161 C 350.153 355.439,350.745 355.667,351.190 355.667 C 351.636 355.667,352.000 355.799,352.000 355.961 C 352.000 356.233,353.051 356.712,353.833 356.797 C 354.017 356.817,354.265 356.970,354.386 357.137 C 354.507 357.304,354.882 357.467,355.219 357.500 C 355.557 357.533,356.658 357.942,357.667 358.408 C 359.288 359.158,361.530 360.085,362.000 360.200 C 362.092 360.222,362.654 360.355,363.250 360.495 C 363.846 360.635,364.333 360.890,364.333 361.061 C 364.333 361.233,364.473 361.286,364.644 361.181 C 364.814 361.075,365.052 361.148,365.172 361.341 C 365.291 361.535,365.677 361.603,366.028 361.491 C 366.379 361.380,366.667 361.428,366.667 361.599 C 366.667 361.769,367.529 362.175,368.583 362.500 C 369.637 362.826,370.716 363.259,370.981 363.463 C 371.349 363.747,371.402 363.734,371.207 363.409 C 371.066 363.176,371.576 363.311,372.339 363.709 C 373.103 364.107,374.149 364.447,374.664 364.466 C 375.179 364.485,375.532 364.612,375.448 364.750 C 375.301 364.989,375.810 365.094,377.083 365.089 C 377.404 365.088,377.667 365.233,377.667 365.412 C 377.667 365.591,377.887 365.653,378.156 365.550 C 378.425 365.447,378.740 365.516,378.856 365.704 C 378.972 365.892,379.268 365.969,379.512 365.875 C 379.757 365.781,380.006 365.850,380.065 366.028 C 380.124 366.207,380.622 366.386,381.170 366.426 C 381.718 366.467,382.242 366.596,382.333 366.713 C 382.425 366.830,383.025 367.006,383.667 367.105 C 384.308 367.203,385.348 367.442,385.978 367.636 C 386.607 367.830,387.194 367.917,387.281 367.831 C 387.368 367.744,387.644 367.843,387.894 368.050 C 388.145 368.258,388.433 368.345,388.535 368.243 C 388.637 368.140,389.196 368.250,389.777 368.487 C 390.358 368.723,391.096 368.874,391.417 368.821 C 391.738 368.769,392.000 368.837,392.000 368.974 C 392.000 369.110,392.188 369.236,392.417 369.252 C 392.646 369.268,393.433 369.375,394.167 369.489 C 397.955 370.078,398.649 368.599,395.844 365.917 C 394.933 365.046,393.999 364.333,393.768 364.333 C 393.537 364.333,393.103 363.958,392.803 363.500 C 392.502 363.042,392.084 362.667,391.874 362.667 C 391.664 362.667,391.343 362.340,391.162 361.941 C 390.981 361.541,390.116 360.724,389.238 360.124 C 388.361 359.525,387.661 358.932,387.682 358.808 C 387.704 358.684,387.333 358.328,386.858 358.016 C 386.383 357.705,386.096 357.349,386.220 357.225 C 386.343 357.101,386.169 357.000,385.833 357.000 C 385.497 357.000,385.325 356.897,385.450 356.772 C 385.731 356.491,383.688 354.333,383.140 354.333 C 382.923 354.333,382.662 354.018,382.561 353.633 C 382.460 353.248,382.218 353.032,382.022 353.153 C 381.826 353.274,381.667 353.131,381.667 352.833 C 381.667 352.537,381.523 352.383,381.348 352.491 C 381.172 352.600,380.801 352.249,380.524 351.712 C 380.246 351.175,379.602 350.409,379.093 350.010 C 378.583 349.611,378.392 349.395,378.667 349.530 C 378.942 349.666,378.717 349.325,378.167 348.772 C 377.617 348.219,377.050 347.831,376.908 347.908 C 376.766 347.986,376.672 347.926,376.698 347.775 C 376.815 347.100,376.639 346.645,376.333 346.833 C 376.150 346.947,376.000 346.797,376.000 346.500 C 376.000 346.203,375.850 346.053,375.667 346.167 C 375.483 346.280,375.333 346.132,375.333 345.837 C 375.333 345.542,374.621 344.605,373.750 343.754 C 372.879 342.903,372.467 342.422,372.833 342.686 C 373.434 343.119,372.327 341.654,370.644 339.786 C 370.290 339.394,370.000 338.922,370.000 338.739 C 370.000 338.555,369.775 338.318,369.500 338.213 C 369.225 338.107,369.000 337.817,369.000 337.569 C 369.000 337.320,368.625 336.764,368.167 336.333 C 367.708 335.903,367.333 335.360,367.333 335.127 C 367.333 334.895,367.000 334.471,366.592 334.186 C 366.185 333.900,365.966 333.667,366.105 333.667 C 366.245 333.667,366.053 333.338,365.680 332.937 C 365.306 332.536,365.000 332.084,365.000 331.934 C 365.000 331.783,364.475 330.913,363.833 330.000 C 363.192 329.087,362.667 328.189,362.667 328.003 C 362.667 327.818,362.553 327.667,362.415 327.667 C 362.276 327.667,361.971 327.234,361.737 326.705 C 361.503 326.176,361.016 325.403,360.656 324.987 C 360.295 324.572,360.000 324.020,360.000 323.763 C 360.000 323.505,359.850 323.387,359.667 323.500 C 359.483 323.613,359.322 323.585,359.308 323.436 C 359.221 322.516,358.993 321.873,358.580 321.387 C 358.321 321.083,357.917 320.346,357.681 319.750 C 357.445 319.154,357.112 318.667,356.940 318.667 C 356.768 318.667,356.720 318.517,356.833 318.333 C 356.947 318.150,356.897 318.000,356.723 318.000 C 356.549 318.000,355.981 317.025,355.462 315.833 C 354.943 314.642,354.393 313.667,354.239 313.667 C 354.086 313.667,354.039 313.539,354.135 313.384 C 354.232 313.228,354.042 312.813,353.713 312.460 C 353.385 312.107,353.184 311.614,353.268 311.363 C 353.359 311.090,353.270 311.000,353.047 311.138 C 352.810 311.284,352.746 311.180,352.873 310.851 C 352.982 310.566,352.905 310.333,352.702 310.333 C 352.499 310.333,352.369 310.221,352.413 310.083 C 352.546 309.662,351.606 307.667,351.273 307.667 C 351.101 307.667,351.046 307.529,351.150 307.360 C 351.254 307.192,351.139 306.853,350.893 306.607 C 350.647 306.362,350.515 305.954,350.600 305.701 C 350.692 305.424,350.604 305.333,350.380 305.471 C 350.143 305.618,350.080 305.513,350.206 305.184 C 350.316 304.899,350.230 304.667,350.016 304.667 C 349.802 304.667,349.720 304.517,349.833 304.333 C 349.947 304.150,349.868 304.000,349.659 304.000 C 349.449 304.000,349.345 303.812,349.428 303.583 C 349.511 303.354,349.391 302.792,349.162 302.333 C 348.933 301.875,348.391 300.675,347.956 299.667 C 347.522 298.658,347.053 297.783,346.915 297.722 C 346.776 297.660,346.744 297.479,346.843 297.318 C 346.942 297.158,346.886 296.759,346.719 296.430 C 345.928 294.878,345.224 293.099,345.143 292.451 C 345.093 292.058,344.816 291.278,344.526 290.718 C 344.237 290.158,344.000 289.467,344.000 289.183 C 344.000 288.899,343.869 288.667,343.708 288.667 C 343.548 288.667,343.413 288.329,343.408 287.917 C 343.403 287.504,343.253 286.792,343.073 286.333 C 342.893 285.875,342.718 285.350,342.683 285.167 C 342.648 284.983,342.387 284.576,342.102 284.262 C 341.818 283.948,341.663 283.491,341.757 283.245 C 341.851 282.999,341.695 282.281,341.411 281.649 C 341.126 281.017,340.860 280.387,340.821 280.250 C 340.782 280.112,340.721 279.962,340.686 279.917 C 340.651 279.871,340.554 279.308,340.472 278.667 C 340.389 278.025,340.183 277.453,340.013 277.395 C 339.843 277.337,339.787 277.075,339.888 276.812 C 339.989 276.549,339.910 276.333,339.713 276.333 C 339.516 276.333,339.431 276.134,339.524 275.891 C 339.617 275.647,339.510 275.010,339.286 274.474 C 339.062 273.938,338.842 273.275,338.796 273.000 C 338.604 271.830,338.357 271.000,338.008 270.348 C 337.803 269.966,337.727 269.506,337.838 269.326 C 337.949 269.147,337.863 269.000,337.647 269.000 C 337.420 269.000,337.329 268.721,337.430 268.333 C 337.526 267.967,337.482 267.667,337.333 267.667 C 337.184 267.667,337.141 267.367,337.237 267.000 C 337.338 266.613,337.247 266.333,337.019 266.333 C 336.804 266.333,336.718 266.187,336.829 266.008 C 336.939 265.829,336.857 265.041,336.645 264.258 C 336.434 263.474,336.193 262.458,336.111 262.000 C 335.946 261.081,335.422 258.873,335.122 257.833 C 335.017 257.467,334.914 256.904,334.894 256.583 C 334.874 256.262,334.777 255.999,334.679 255.998 C 334.580 255.996,334.467 255.285,334.427 254.418 C 334.386 253.550,334.198 252.788,334.008 252.725 C 333.818 252.662,333.729 252.502,333.811 252.370 C 333.892 252.239,333.828 251.539,333.668 250.815 C 333.507 250.092,333.275 248.600,333.152 247.500 C 333.029 246.400,332.819 245.350,332.686 245.167 C 332.554 244.983,332.406 244.085,332.359 243.169 C 332.312 242.254,332.185 241.363,332.078 241.189 C 331.970 241.015,331.851 240.399,331.812 239.820 C 331.773 239.240,331.621 238.256,331.473 237.633 C 331.325 237.010,331.170 236.050,331.127 235.500 C 331.085 234.950,330.966 234.050,330.861 233.500 C 330.757 232.950,330.662 231.787,330.650 230.917 C 330.638 230.046,330.484 229.333,330.308 229.333 C 330.132 229.333,330.081 228.959,330.196 228.501 C 330.311 228.043,330.299 227.405,330.168 227.084 C 329.941 226.523,329.748 224.658,329.626 221.833 C 329.594 221.100,329.487 220.356,329.388 220.180 C 329.289 220.004,329.247 219.217,329.296 218.430 C 329.344 217.644,329.254 217.000,329.097 217.000 C 328.939 217.000,328.805 216.063,328.799 214.917 C 328.793 213.771,328.689 211.633,328.568 210.167 C 327.765 200.434,327.236 185.258,327.330 174.667 C 327.362 171.092,327.414 165.129,327.444 161.417 C 327.475 157.704,327.585 154.667,327.690 154.667 C 327.794 154.667,327.900 153.129,327.925 151.250 C 327.951 149.371,328.047 146.933,328.140 145.833 C 328.288 144.081,328.461 140.983,328.829 133.500 C 328.883 132.400,329.013 130.975,329.117 130.333 C 329.222 129.692,329.398 127.667,329.508 125.833 C 329.618 124.000,329.775 121.825,329.857 121.000 C 329.939 120.175,330.086 118.150,330.185 116.500 C 330.284 114.850,330.575 111.606,330.832 109.291 C 331.088 106.976,331.296 104.801,331.292 104.457 C 331.289 104.114,331.382 103.083,331.498 102.167 C 331.615 101.250,331.768 99.750,331.839 98.833 C 331.910 97.917,331.995 97.167,332.027 97.167 C 332.140 97.167,332.424 94.841,332.840 90.500 C 332.910 89.767,333.069 88.492,333.193 87.667 C 333.316 86.842,333.436 85.642,333.459 85.000 C 333.481 84.358,333.623 83.643,333.774 83.410 C 333.924 83.178,334.072 81.940,334.103 80.660 C 334.134 79.381,334.260 78.333,334.384 78.333 C 334.507 78.333,334.578 77.846,334.541 77.250 C 334.504 76.654,334.578 76.017,334.706 75.833 C 334.833 75.650,335.038 74.400,335.160 73.056 C 335.282 71.712,335.504 69.844,335.652 68.906 C 335.800 67.968,335.885 66.968,335.841 66.683 C 335.797 66.399,335.874 66.092,336.012 66.000 C 336.230 65.855,336.658 62.884,336.831 60.308 C 336.863 59.835,336.970 59.310,337.068 59.141 C 337.167 58.972,337.229 58.346,337.207 57.750 C 337.185 57.154,337.268 56.667,337.392 56.667 C 337.517 56.667,337.561 56.217,337.492 55.667 C 337.422 55.117,337.484 54.667,337.629 54.667 C 337.774 54.667,337.866 54.211,337.833 53.654 C 337.799 53.097,337.878 52.575,338.007 52.496 C 338.136 52.416,338.200 51.822,338.149 51.175 C 338.097 50.529,338.168 50.000,338.305 50.000 C 338.443 50.000,338.572 49.813,338.592 49.583 C 338.612 49.354,338.721 48.342,338.835 47.333 C 338.948 46.325,339.058 45.125,339.080 44.667 C 339.101 44.208,339.223 43.758,339.351 43.667 C 339.590 43.495,340.029 40.761,340.160 38.632 C 340.201 37.971,340.314 37.296,340.413 37.132 C 340.511 36.968,340.618 36.421,340.650 35.917 C 340.792 33.692,340.845 33.333,341.034 33.333 C 341.144 33.333,341.215 32.921,341.191 32.417 C 341.168 31.912,341.264 31.155,341.406 30.733 C 341.738 29.742,342.041 28.137,342.174 26.667 C 342.232 26.025,342.431 25.011,342.617 24.414 C 342.803 23.817,342.887 22.954,342.804 22.497 C 342.719 22.028,342.812 21.667,343.017 21.667 C 343.217 21.667,343.344 21.329,343.299 20.917 C 343.254 20.504,343.417 19.267,343.661 18.167 C 343.904 17.067,344.143 15.717,344.190 15.167 C 344.237 14.617,344.300 14.167,344.330 14.167 C 344.427 14.167,344.624 12.900,344.718 11.685 C 344.768 11.033,344.946 10.404,345.114 10.287 C 345.611 9.941,345.580 3.250,345.081 3.083 C 344.851 3.006,344.747 2.806,344.851 2.638 C 344.955 2.471,344.805 2.333,344.520 2.333 C 344.234 2.333,344.000 2.195,344.000 2.026 C 344.000 1.554,342.147 1.240,338.667 1.121 C 331.840 0.888,329.273 0.837,329.175 0.935 M154.329 105.746 C 153.873 105.922,152.988 106.121,152.362 106.188 C 151.736 106.255,151.077 106.457,150.897 106.637 C 150.717 106.817,150.141 106.878,149.618 106.774 C 149.095 106.669,148.667 106.727,148.667 106.904 C 148.667 107.080,148.029 107.249,147.250 107.279 C 146.471 107.310,145.783 107.485,145.722 107.670 C 145.660 107.854,145.470 107.918,145.298 107.812 C 145.127 107.706,144.427 107.812,143.743 108.048 C 143.060 108.284,142.200 108.504,141.833 108.538 C 141.467 108.572,140.792 108.687,140.333 108.794 C 139.875 108.901,139.050 109.085,138.500 109.204 C 137.950 109.322,137.125 109.569,136.667 109.754 C 136.208 109.938,135.429 110.142,134.936 110.206 C 134.442 110.271,133.392 110.549,132.602 110.824 C 131.813 111.099,130.895 111.326,130.564 111.328 C 130.189 111.331,130.052 111.481,130.202 111.723 C 130.360 111.979,130.266 112.046,129.929 111.916 C 129.646 111.808,129.224 111.895,128.992 112.109 C 128.660 112.416,128.629 112.392,128.848 112.000 C 129.080 111.586,129.040 111.571,128.617 111.914 C 128.335 112.141,128.007 112.229,127.886 112.108 C 127.765 111.988,127.667 112.064,127.667 112.278 C 127.667 112.492,127.554 112.649,127.417 112.627 C 127.279 112.605,127.092 112.615,127.000 112.648 C 126.908 112.682,126.327 112.759,125.708 112.819 C 125.089 112.880,124.489 113.058,124.375 113.215 C 124.260 113.372,124.017 113.503,123.833 113.507 C 122.986 113.523,121.000 114.055,121.000 114.265 C 121.000 114.394,120.605 114.523,120.123 114.551 C 119.641 114.579,119.153 114.729,119.040 114.884 C 118.926 115.040,118.458 115.206,118.000 115.254 C 117.542 115.302,116.942 115.439,116.667 115.559 C 116.392 115.678,116.054 115.807,115.917 115.846 C 115.779 115.885,115.592 115.954,115.500 116.000 C 115.408 116.046,115.221 116.115,115.083 116.153 C 114.946 116.191,114.383 116.408,113.833 116.636 C 113.283 116.863,112.383 117.134,111.833 117.238 C 111.283 117.342,110.646 117.574,110.417 117.754 C 110.188 117.934,110.000 117.965,110.000 117.822 C 110.000 117.680,109.674 117.849,109.276 118.198 C 108.810 118.607,108.649 118.655,108.825 118.333 C 109.047 117.927,109.014 117.911,108.649 118.250 C 108.402 118.479,107.930 118.667,107.600 118.667 C 107.270 118.667,107.000 118.826,107.000 119.020 C 107.000 119.214,106.853 119.282,106.674 119.171 C 106.494 119.060,106.007 119.156,105.590 119.385 C 105.174 119.614,104.683 119.837,104.500 119.881 C 104.317 119.925,103.792 120.043,103.334 120.144 C 102.877 120.244,102.451 120.479,102.389 120.665 C 102.327 120.852,102.144 120.922,101.981 120.822 C 101.819 120.721,101.232 120.874,100.676 121.162 C 100.121 121.449,99.667 121.582,99.667 121.457 C 99.667 121.332,99.341 121.516,98.943 121.865 C 98.459 122.290,98.301 122.334,98.467 122.000 C 98.611 121.712,98.511 121.750,98.234 122.089 C 97.968 122.413,97.527 122.592,97.252 122.487 C 96.977 122.381,96.546 122.502,96.293 122.755 C 96.040 123.007,95.721 123.241,95.583 123.274 C 95.446 123.307,95.296 123.344,95.250 123.358 C 95.204 123.372,94.852 123.442,94.467 123.515 C 94.082 123.588,93.032 123.975,92.134 124.376 C 91.235 124.777,90.350 125.128,90.167 125.155 C 89.983 125.182,89.571 125.309,89.250 125.436 C 88.929 125.563,88.404 125.766,88.083 125.888 C 87.763 126.010,87.425 126.142,87.333 126.183 C 87.242 126.223,86.829 126.366,86.417 126.500 C 86.004 126.635,85.667 126.845,85.667 126.968 C 85.667 127.091,85.343 127.216,84.947 127.246 C 84.551 127.276,84.138 127.420,84.030 127.567 C 83.922 127.713,83.608 127.887,83.333 127.952 C 83.058 128.017,82.683 128.106,82.500 128.150 C 82.317 128.195,81.744 128.404,81.228 128.615 C 80.712 128.827,80.168 129.000,80.019 129.000 C 79.870 129.000,79.563 129.223,79.336 129.496 C 79.110 129.769,78.812 129.923,78.674 129.838 C 78.537 129.753,77.841 129.960,77.129 130.299 C 76.416 130.638,75.271 131.114,74.583 131.358 C 73.896 131.601,73.333 131.916,73.333 132.057 C 73.333 132.197,73.132 132.235,72.887 132.141 C 72.641 132.047,72.248 132.201,72.013 132.485 C 71.777 132.768,71.239 133.000,70.816 133.000 C 70.394 133.000,69.820 133.228,69.542 133.506 C 69.263 133.784,68.915 133.980,68.768 133.940 C 68.287 133.811,67.000 134.370,67.000 134.709 C 67.000 134.891,66.843 134.943,66.652 134.824 C 66.461 134.706,65.898 134.879,65.402 135.208 C 64.906 135.537,64.207 135.854,63.848 135.912 C 63.489 135.970,63.114 136.126,63.014 136.258 C 62.915 136.391,62.533 136.550,62.167 136.611 C 61.800 136.672,61.358 136.860,61.183 137.028 C 61.009 137.196,60.634 137.334,60.350 137.334 C 59.728 137.334,57.799 138.948,57.917 139.369 C 57.963 139.533,57.775 139.667,57.500 139.667 C 57.042 139.667,56.847 140.074,56.969 140.775 C 56.995 140.926,56.876 140.962,56.703 140.856 C 56.297 140.605,55.193 143.487,55.445 144.143 C 55.551 144.419,55.488 144.738,55.305 144.851 C 55.122 144.964,55.070 145.361,55.188 145.734 C 55.306 146.106,55.449 146.987,55.506 147.690 C 55.562 148.394,55.716 149.144,55.848 149.358 C 55.980 149.571,56.128 150.141,56.177 150.623 C 56.323 152.068,56.681 153.754,56.923 154.139 C 57.048 154.337,57.107 154.762,57.054 155.083 C 57.001 155.404,57.103 155.667,57.281 155.667 C 57.459 155.667,57.530 155.951,57.439 156.299 C 57.348 156.647,57.467 157.285,57.703 157.716 C 57.939 158.147,58.092 158.837,58.043 159.250 C 57.993 159.662,58.104 160.000,58.290 160.000 C 58.476 160.000,58.571 160.300,58.500 160.667 C 58.429 161.033,58.483 161.333,58.619 161.333 C 58.755 161.333,58.884 161.671,58.904 162.083 C 58.925 162.496,59.191 163.733,59.495 164.833 C 59.798 165.933,60.128 167.246,60.228 167.750 C 60.328 168.254,60.551 168.667,60.724 168.667 C 60.898 168.667,60.956 168.801,60.855 168.965 C 60.754 169.128,60.881 169.766,61.137 170.381 C 61.393 170.997,61.678 171.978,61.769 172.562 C 61.860 173.146,62.350 174.871,62.858 176.395 C 64.093 180.108,64.082 180.072,64.226 180.833 C 64.296 181.200,64.490 181.547,64.658 181.605 C 64.825 181.663,64.870 181.950,64.758 182.243 C 64.611 182.626,64.678 182.699,64.995 182.503 C 65.289 182.321,65.357 182.359,65.197 182.617 C 64.941 183.032,65.647 185.333,66.031 185.333 C 66.158 185.333,66.351 185.566,66.461 185.851 C 66.584 186.173,66.522 186.284,66.296 186.144 C 66.086 186.014,66.118 186.253,66.371 186.710 C 66.611 187.144,66.771 187.628,66.726 187.785 C 66.680 187.942,66.824 188.288,67.045 188.555 C 67.267 188.821,67.487 189.406,67.535 189.854 C 67.582 190.302,67.858 190.906,68.147 191.195 C 68.436 191.484,68.583 191.865,68.474 192.042 C 68.365 192.218,68.490 192.694,68.752 193.098 C 69.140 193.697,69.524 194.743,69.818 196.000 C 69.839 196.092,70.064 196.542,70.318 197.000 C 70.572 197.458,70.740 197.833,70.692 197.833 C 70.644 197.833,70.759 198.208,70.946 198.667 C 71.134 199.125,71.542 200.209,71.853 201.077 C 72.164 201.944,72.536 202.581,72.680 202.492 C 72.824 202.403,72.898 202.593,72.844 202.915 C 72.757 203.441,73.052 204.159,74.544 207.051 C 74.795 207.538,75.000 208.176,75.000 208.468 C 75.000 208.761,75.159 209.000,75.353 209.000 C 75.547 209.000,75.624 209.132,75.524 209.294 C 75.424 209.456,75.640 209.967,76.005 210.430 C 76.369 210.893,76.667 211.519,76.667 211.821 C 76.667 212.332,78.083 215.108,79.302 216.985 C 79.594 217.436,79.790 217.886,79.737 217.985 C 79.621 218.204,80.723 220.764,81.036 221.000 C 81.157 221.092,81.603 221.917,82.026 222.833 C 82.450 223.750,82.930 224.592,83.093 224.704 C 83.257 224.816,83.374 225.005,83.355 225.124 C 83.336 225.243,83.577 225.826,83.892 226.420 C 84.206 227.014,84.498 227.700,84.540 227.945 C 84.582 228.189,84.890 228.597,85.225 228.851 C 85.559 229.105,85.723 229.317,85.589 229.323 C 85.245 229.338,86.670 232.000,87.021 232.000 C 87.179 232.000,87.471 232.608,87.671 233.350 C 87.871 234.093,88.235 234.778,88.480 234.872 C 88.725 234.966,89.014 235.484,89.121 236.024 C 89.229 236.564,89.502 236.967,89.727 236.919 C 89.952 236.872,90.157 237.058,90.184 237.333 C 90.303 238.575,90.353 238.694,90.675 238.495 C 90.863 238.379,90.983 238.407,90.942 238.559 C 90.799 239.088,91.363 240.273,91.846 240.459 C 92.114 240.562,92.333 240.893,92.333 241.195 C 92.333 241.497,92.828 242.439,93.432 243.289 C 94.036 244.138,94.815 245.386,95.163 246.062 C 95.511 246.738,95.954 247.263,96.148 247.229 C 96.341 247.195,96.456 247.429,96.402 247.750 C 96.348 248.071,96.461 248.333,96.652 248.333 C 96.843 248.333,97.000 248.492,97.000 248.686 C 97.000 249.112,99.985 253.454,100.387 253.612 C 100.543 253.673,100.586 253.861,100.482 254.028 C 100.379 254.196,100.523 254.333,100.803 254.333 C 101.119 254.333,101.239 254.523,101.121 254.833 C 101.015 255.108,101.098 255.333,101.306 255.333 C 101.513 255.333,101.826 255.708,102.000 256.167 C 102.174 256.625,102.468 257.000,102.652 257.000 C 102.836 257.000,103.080 257.370,103.194 257.822 C 103.307 258.275,103.824 258.982,104.342 259.395 C 104.860 259.807,105.221 260.245,105.145 260.368 C 105.069 260.491,105.231 260.776,105.504 261.003 C 105.777 261.230,106.000 261.630,106.000 261.894 C 106.000 262.157,106.134 262.290,106.298 262.189 C 106.462 262.087,106.680 262.342,106.784 262.755 C 106.888 263.168,107.486 264.067,108.115 264.753 C 108.743 265.439,109.180 266.000,109.087 266.000 C 108.994 266.000,109.104 266.223,109.330 266.496 C 109.557 266.769,109.879 266.908,110.046 266.805 C 110.213 266.702,110.318 266.741,110.279 266.892 C 110.174 267.296,111.680 269.667,112.041 269.667 C 112.211 269.667,112.496 270.051,112.674 270.520 C 112.872 271.039,113.150 271.280,113.384 271.135 C 113.596 271.004,113.685 271.034,113.581 271.202 C 113.382 271.525,114.197 272.833,114.598 272.833 C 114.727 272.833,114.796 272.946,114.750 273.083 C 114.704 273.221,114.892 273.333,115.167 273.333 C 115.442 273.333,115.649 273.446,115.627 273.583 C 115.516 274.290,115.723 274.667,116.222 274.667 C 116.528 274.667,116.680 274.764,116.561 274.883 C 116.443 275.002,116.755 275.470,117.256 275.922 C 117.757 276.375,117.942 276.635,117.667 276.500 C 117.392 276.365,117.842 276.890,118.667 277.667 C 119.492 278.444,119.942 278.958,119.667 278.809 C 119.237 278.577,119.231 278.618,119.621 279.099 C 119.871 279.407,120.198 279.584,120.347 279.491 C 120.496 279.399,120.712 279.618,120.826 279.978 C 120.941 280.338,121.450 281.078,121.958 281.621 C 122.465 282.165,123.386 283.185,124.003 283.888 C 124.621 284.591,125.210 285.129,125.313 285.083 C 125.416 285.037,125.507 285.188,125.515 285.417 C 125.523 285.646,125.702 285.799,125.912 285.757 C 126.121 285.715,126.388 285.979,126.504 286.345 C 126.620 286.711,126.854 286.924,127.024 286.819 C 127.194 286.713,127.333 286.804,127.333 287.020 C 127.333 287.502,136.470 296.667,136.950 296.667 C 137.139 296.667,137.401 296.840,137.532 297.052 C 137.689 297.305,137.610 297.352,137.302 297.189 C 137.044 297.052,137.433 297.496,138.167 298.175 C 141.007 300.803,142.333 301.946,142.333 301.765 C 142.333 301.661,142.644 301.972,143.024 302.455 C 143.404 302.938,143.938 303.333,144.211 303.333 C 144.483 303.333,144.620 303.472,144.516 303.641 C 144.321 303.957,145.692 305.053,146.771 305.443 C 147.104 305.564,147.277 305.821,147.157 306.015 C 147.034 306.214,147.389 306.538,147.970 306.757 C 148.536 306.971,149.000 307.334,149.000 307.565 C 149.000 307.795,149.432 308.206,149.960 308.479 C 150.487 308.752,151.008 309.206,151.116 309.488 C 151.224 309.769,151.519 310.000,151.771 310.000 C 152.024 310.000,152.502 310.300,152.833 310.667 C 153.165 311.033,153.638 311.333,153.885 311.333 C 154.132 311.333,154.333 311.548,154.333 311.811 C 154.333 312.074,154.633 312.384,155.000 312.500 C 155.367 312.616,155.667 312.821,155.667 312.955 C 155.667 313.326,162.357 318.179,162.726 318.075 C 162.904 318.025,162.968 318.116,162.868 318.278 C 162.768 318.440,163.244 318.856,163.926 319.203 C 164.608 319.550,165.218 319.950,165.281 320.092 C 165.442 320.459,170.924 324.000,171.330 324.000 C 171.515 324.000,171.667 324.134,171.667 324.297 C 171.667 324.461,172.048 324.690,172.514 324.807 C 172.979 324.924,173.271 325.165,173.161 325.343 C 173.051 325.521,173.195 325.667,173.480 325.667 C 173.766 325.667,174.000 325.814,174.000 325.994 C 174.000 326.173,174.375 326.415,174.833 326.530 C 175.292 326.645,175.667 326.873,175.667 327.036 C 175.667 327.200,175.868 327.333,176.115 327.333 C 176.362 327.333,176.835 327.633,177.167 328.000 C 177.498 328.367,178.028 328.667,178.344 328.667 C 178.660 328.667,179.105 328.892,179.333 329.167 C 179.562 329.442,179.867 329.667,180.013 329.667 C 180.158 329.667,181.399 330.417,182.769 331.333 C 184.140 332.250,185.359 333.000,185.477 333.000 C 185.596 333.000,186.100 333.297,186.597 333.661 C 187.094 334.024,187.867 334.375,188.316 334.441 C 188.764 334.507,189.189 334.733,189.259 334.943 C 189.442 335.494,192.660 337.043,193.081 336.783 C 193.291 336.654,193.339 336.722,193.198 336.948 C 193.068 337.160,193.114 337.333,193.302 337.333 C 193.490 337.333,194.358 337.786,195.231 338.340 C 196.104 338.894,197.017 339.270,197.260 339.177 C 197.503 339.084,197.624 339.133,197.529 339.286 C 197.342 339.590,200.359 341.111,201.149 341.111 C 201.418 341.111,201.715 341.311,201.809 341.556 C 201.902 341.800,202.277 342.000,202.641 342.000 C 203.006 342.000,203.864 342.380,204.548 342.845 C 205.233 343.309,205.998 343.611,206.247 343.515 C 206.530 343.407,206.611 343.486,206.463 343.727 C 206.305 343.982,206.405 344.044,206.757 343.909 C 207.062 343.792,207.687 344.015,208.213 344.429 C 208.757 344.857,209.029 344.952,208.876 344.661 C 208.734 344.389,208.843 344.444,209.120 344.783 C 209.413 345.143,209.792 345.295,210.029 345.149 C 210.289 344.988,210.350 345.036,210.198 345.282 C 210.060 345.506,210.166 345.667,210.453 345.667 C 210.724 345.667,211.371 345.895,211.890 346.173 C 212.956 346.746,214.666 347.442,215.167 347.507 C 215.350 347.531,216.325 347.935,217.333 348.406 C 219.985 349.643,221.999 350.365,222.005 350.081 C 222.008 349.945,222.121 350.007,222.256 350.220 C 222.571 350.714,226.012 352.032,226.385 351.801 C 226.540 351.706,226.667 351.761,226.667 351.924 C 226.667 352.316,229.015 353.030,229.440 352.768 C 229.625 352.653,229.665 352.733,229.532 352.948 C 229.391 353.177,229.506 353.333,229.814 353.333 C 230.665 353.333,230.815 353.374,231.235 353.724 C 231.457 353.907,231.794 353.961,231.985 353.842 C 232.177 353.724,232.333 353.796,232.333 354.003 C 232.333 354.234,232.606 354.292,233.042 354.153 C 233.567 353.987,233.682 354.039,233.487 354.354 C 233.302 354.653,233.382 354.719,233.757 354.575 C 234.050 354.463,234.337 354.511,234.395 354.683 C 234.453 354.854,234.912 355.028,235.417 355.070 C 235.921 355.111,236.333 355.263,236.333 355.406 C 236.333 355.549,236.446 355.642,236.583 355.612 C 236.997 355.521,238.804 356.069,239.250 356.420 C 239.479 356.601,239.667 356.653,239.667 356.536 C 239.667 356.420,240.208 356.550,240.869 356.827 C 241.530 357.103,242.205 357.246,242.369 357.145 C 242.533 357.044,242.667 357.145,242.667 357.369 C 242.667 357.594,242.765 357.679,242.886 357.558 C 243.007 357.438,243.335 357.525,243.617 357.753 C 244.041 358.096,244.078 358.082,243.833 357.667 C 243.579 357.235,243.616 357.230,244.103 357.624 C 244.413 357.876,244.669 357.951,244.672 357.791 C 244.675 357.631,244.799 357.692,244.947 357.926 C 245.096 358.161,245.656 358.386,246.192 358.426 C 246.728 358.467,247.260 358.628,247.375 358.785 C 247.489 358.942,248.014 359.112,248.542 359.162 C 249.468 359.251,249.805 359.346,251.727 360.062 C 252.219 360.246,253.119 360.453,253.727 360.523 C 255.297 360.704,255.776 360.816,256.250 361.112 C 256.479 361.256,256.817 361.280,257.000 361.167 C 257.183 361.053,257.333 361.106,257.333 361.284 C 257.333 361.462,257.596 361.565,257.917 361.513 C 258.237 361.461,258.650 361.526,258.833 361.658 C 259.430 362.085,262.272 362.744,262.612 362.534 C 262.794 362.421,262.993 362.466,263.055 362.634 C 263.116 362.801,263.692 362.982,264.333 363.035 C 264.975 363.088,265.659 363.247,265.854 363.388 C 266.049 363.529,266.724 363.717,267.354 363.806 C 267.984 363.895,268.875 364.052,269.333 364.156 C 269.792 364.259,270.654 364.366,271.250 364.393 C 271.846 364.419,272.333 364.583,272.333 364.757 C 272.333 364.930,272.708 364.978,273.167 364.863 C 273.625 364.748,274.000 364.792,274.000 364.960 C 274.000 365.129,274.459 365.235,275.019 365.196 C 275.580 365.158,276.120 365.258,276.220 365.419 C 276.319 365.580,276.611 365.632,276.867 365.533 C 277.124 365.435,277.333 365.488,277.333 365.652 C 277.333 365.816,277.858 365.901,278.500 365.841 C 279.142 365.782,279.667 365.886,279.667 366.072 C 279.667 366.259,279.967 366.333,280.333 366.237 C 280.699 366.141,281.084 366.200,281.188 366.368 C 281.292 366.536,281.780 366.679,282.272 366.685 C 284.175 366.707,285.333 366.842,285.333 367.040 C 285.333 367.154,286.196 367.351,287.250 367.478 C 288.304 367.604,289.692 367.781,290.333 367.870 C 290.975 367.959,292.118 368.079,292.873 368.136 C 293.629 368.193,294.407 368.339,294.603 368.460 C 294.798 368.581,295.380 368.677,295.896 368.672 C 297.806 368.655,299.999 368.839,299.999 369.016 C 300.000 369.116,300.563 369.180,301.250 369.159 C 301.938 369.138,302.650 369.201,302.833 369.299 C 303.212 369.502,305.702 369.724,308.167 369.775 C 309.083 369.795,309.911 369.918,310.006 370.050 C 310.620 370.901,326.151 371.020,327.428 370.183 C 328.508 369.476,328.594 368.794,327.642 368.492 C 327.261 368.371,327.030 368.192,327.128 368.094 C 327.334 367.888,325.449 366.431,324.583 366.127 C 324.262 366.014,324.000 365.814,324.000 365.681 C 324.000 365.549,323.402 365.154,322.670 364.804 C 321.939 364.453,321.339 364.054,321.337 363.917 C 321.335 363.779,321.158 363.667,320.943 363.667 C 320.728 363.667,320.291 363.430,319.972 363.141 C 319.456 362.675,318.820 362.439,317.861 362.359 C 317.693 362.345,317.652 362.237,317.769 362.120 C 318.053 361.835,315.918 360.692,315.532 360.923 C 315.366 361.022,315.337 360.930,315.468 360.718 C 315.693 360.355,315.311 360.197,314.455 360.300 C 314.246 360.325,313.988 360.115,313.880 359.834 C 313.700 359.365,312.469 358.693,311.389 358.474 C 311.144 358.425,310.769 358.154,310.555 357.874 C 310.342 357.593,309.792 357.204,309.333 357.010 C 308.875 356.816,308.050 356.370,307.500 356.019 C 306.950 355.669,306.254 355.371,305.952 355.358 C 305.651 355.344,305.318 355.108,305.213 354.833 C 305.107 354.558,304.712 354.333,304.333 354.333 C 303.955 354.333,303.565 354.123,303.466 353.866 C 303.300 353.431,302.153 352.882,301.583 352.964 C 301.446 352.984,301.333 352.847,301.333 352.660 C 301.333 352.472,300.921 352.137,300.417 351.913 C 299.912 351.690,299.302 351.319,299.060 351.087 C 298.817 350.856,298.321 350.667,297.957 350.667 C 297.592 350.667,297.371 350.542,297.465 350.391 C 297.558 350.239,297.005 349.840,296.234 349.505 C 295.464 349.169,294.713 348.693,294.567 348.447 C 294.420 348.201,294.083 348.000,293.817 348.000 C 293.551 348.000,293.333 347.850,293.333 347.667 C 293.333 347.483,293.098 347.333,292.810 347.333 C 292.521 347.333,292.077 347.146,291.821 346.917 C 290.787 345.989,290.350 345.667,290.129 345.667 C 290.001 345.667,289.395 345.284,288.781 344.816 C 288.168 344.349,287.667 344.082,287.667 344.224 C 287.667 344.366,287.433 344.148,287.148 343.741 C 286.862 343.333,286.337 343.000,285.981 343.000 C 285.625 343.000,285.333 342.850,285.333 342.667 C 285.333 342.483,285.099 342.333,284.814 342.333 C 284.528 342.333,284.379 342.196,284.482 342.029 C 284.586 341.861,284.220 341.525,283.669 341.281 C 283.118 341.037,282.667 340.724,282.667 340.585 C 282.667 340.447,282.442 340.333,282.167 340.333 C 281.892 340.333,281.667 340.174,281.667 339.980 C 281.667 339.786,281.544 339.703,281.394 339.796 C 281.244 339.888,280.911 339.672,280.654 339.315 C 280.397 338.959,279.990 338.667,279.749 338.667 C 279.509 338.667,279.226 338.442,279.121 338.167 C 279.015 337.892,278.757 337.664,278.548 337.661 C 278.338 337.658,277.661 337.211,277.044 336.666 C 276.426 336.122,275.751 335.773,275.544 335.892 C 275.336 336.010,275.272 335.990,275.401 335.847 C 275.666 335.553,274.894 334.667,274.374 334.667 C 274.186 334.667,273.880 334.404,273.693 334.083 C 273.506 333.762,273.349 333.635,273.343 333.801 C 273.338 333.967,273.033 333.756,272.667 333.333 C 272.300 332.911,272.000 332.643,272.000 332.740 C 272.000 332.836,271.148 332.109,270.106 331.124 C 268.394 329.504,267.885 329.163,267.560 329.417 C 267.371 329.563,266.333 328.394,266.333 328.036 C 266.333 327.576,265.152 326.959,264.849 327.262 C 264.718 327.393,264.661 327.275,264.722 327.000 C 264.784 326.723,264.636 326.541,264.392 326.592 C 264.149 326.642,264.040 326.539,264.149 326.362 C 264.258 326.186,263.662 325.518,262.824 324.878 C 261.986 324.238,260.996 323.327,260.624 322.854 C 260.251 322.381,259.785 322.093,259.588 322.215 C 259.384 322.341,259.326 322.281,259.454 322.074 C 259.579 321.872,259.233 321.448,258.673 321.117 C 258.119 320.790,257.667 320.396,257.667 320.242 C 257.667 320.087,257.517 320.053,257.333 320.167 C 257.150 320.280,257.000 320.184,257.000 319.954 C 257.000 319.383,250.778 313.340,250.472 313.614 C 250.337 313.735,250.321 313.667,250.438 313.463 C 250.554 313.260,249.490 311.895,248.074 310.431 C 246.658 308.966,245.456 307.633,245.403 307.468 C 245.349 307.302,244.934 306.792,244.481 306.333 C 242.927 304.763,241.000 302.504,241.000 302.252 C 241.000 302.113,240.791 302.000,240.536 302.000 C 240.281 302.000,239.978 301.625,239.863 301.167 C 239.748 300.708,239.432 300.333,239.160 300.333 C 238.889 300.333,238.667 300.135,238.667 299.893 C 238.667 299.652,238.329 299.137,237.917 298.750 C 236.943 297.837,236.123 296.852,236.327 296.842 C 236.416 296.837,236.252 296.497,235.964 296.085 C 235.676 295.674,235.341 295.437,235.220 295.558 C 235.099 295.679,235.000 295.523,235.000 295.212 C 235.000 294.900,234.775 294.559,234.500 294.454 C 234.225 294.348,234.000 294.112,234.000 293.929 C 234.000 293.555,232.786 291.952,231.481 290.605 C 231.004 290.113,230.582 289.493,230.543 289.229 C 230.478 288.781,229.376 287.191,228.417 286.162 C 228.188 285.916,228.000 285.545,228.000 285.337 C 228.000 285.130,227.865 285.044,227.699 285.147 C 227.534 285.249,227.241 284.883,227.050 284.333 C 226.858 283.783,226.554 283.333,226.373 283.333 C 226.193 283.333,225.938 282.996,225.807 282.585 C 225.677 282.173,225.329 281.660,225.035 281.445 C 224.741 281.230,224.497 280.929,224.494 280.777 C 224.481 280.250,221.199 275.044,220.969 275.186 C 220.842 275.264,220.644 274.955,220.529 274.498 C 220.414 274.041,220.173 273.667,219.994 273.667 C 219.814 273.667,219.667 273.458,219.667 273.202 C 219.667 272.947,219.432 272.648,219.146 272.538 C 218.859 272.428,218.722 272.180,218.841 271.988 C 218.960 271.795,218.863 271.403,218.625 271.117 C 218.112 270.498,217.492 269.453,217.023 268.417 C 216.836 268.004,216.521 267.667,216.322 267.667 C 216.123 267.667,216.050 267.522,216.159 267.345 C 216.268 267.169,216.052 266.719,215.679 266.345 C 215.305 265.972,215.000 265.435,215.000 265.152 C 215.000 264.868,214.625 264.261,214.167 263.803 C 213.708 263.345,213.333 262.668,213.333 262.299 C 213.333 261.876,213.191 261.715,212.948 261.865 C 212.698 262.020,212.655 261.956,212.825 261.681 C 212.968 261.449,212.950 261.163,212.784 261.046 C 212.617 260.929,212.200 260.196,211.857 259.417 C 211.513 258.637,211.127 258.000,210.998 258.000 C 210.869 258.000,210.342 257.031,209.827 255.848 C 209.312 254.664,208.766 253.772,208.615 253.865 C 208.464 253.958,208.430 253.803,208.538 253.520 C 208.655 253.217,208.516 252.921,208.201 252.800 C 207.907 252.688,207.667 252.307,207.667 251.954 C 207.667 251.601,207.443 251.226,207.169 251.121 C 206.895 251.016,206.753 250.796,206.855 250.632 C 206.956 250.468,206.880 250.333,206.686 250.333 C 206.492 250.333,206.358 250.221,206.388 250.083 C 206.501 249.568,205.916 248.000,205.611 248.000 C 205.437 248.000,205.376 247.867,205.477 247.704 C 205.577 247.542,205.454 247.239,205.203 247.030 C 204.952 246.822,204.656 246.195,204.544 245.637 C 204.413 244.979,204.204 244.707,203.952 244.863 C 203.710 245.012,203.653 244.958,203.801 244.719 C 203.932 244.508,203.819 243.922,203.552 243.417 C 203.284 242.913,202.510 241.300,201.831 239.833 C 199.720 235.269,199.225 234.333,198.921 234.333 C 198.760 234.333,198.723 234.179,198.839 233.991 C 198.955 233.803,198.704 232.940,198.281 232.074 C 197.858 231.208,197.509 230.413,197.506 230.307 C 197.503 230.201,197.253 229.601,196.952 228.974 C 196.650 228.347,196.219 227.383,195.994 226.833 C 195.770 226.283,195.399 225.458,195.171 225.000 C 194.944 224.542,194.657 223.748,194.536 223.236 C 194.414 222.725,194.185 222.386,194.028 222.483 C 193.870 222.580,193.665 222.249,193.571 221.747 C 193.277 220.167,193.063 219.428,192.717 218.788 C 192.533 218.446,192.272 217.867,192.136 217.500 C 191.811 216.617,191.818 216.638,191.521 215.586 C 191.366 215.037,191.110 214.758,190.881 214.889 C 190.671 215.009,190.601 214.994,190.725 214.856 C 190.952 214.603,190.440 212.674,189.656 210.833 C 189.422 210.283,189.187 209.611,189.134 209.339 C 189.080 209.068,188.877 208.792,188.683 208.728 C 188.488 208.663,188.418 208.466,188.527 208.290 C 188.635 208.115,188.543 207.752,188.321 207.485 C 188.100 207.218,188.035 207.000,188.178 207.000 C 188.320 207.000,188.165 206.700,187.833 206.333 C 187.502 205.967,187.347 205.667,187.489 205.667 C 187.632 205.667,187.581 205.465,187.377 205.219 C 187.173 204.973,187.101 204.677,187.217 204.561 C 187.333 204.445,187.258 204.145,187.050 203.894 C 186.843 203.644,186.771 203.340,186.892 203.219 C 187.012 203.099,186.952 203.000,186.758 203.000 C 186.564 203.000,186.315 202.767,186.206 202.483 C 186.079 202.150,186.143 202.049,186.385 202.199 C 186.593 202.327,186.533 201.997,186.251 201.466 C 185.970 200.935,185.176 198.700,184.487 196.500 C 183.798 194.300,183.126 192.350,182.994 192.167 C 182.862 191.983,182.651 191.267,182.527 190.574 C 182.402 189.881,182.159 189.402,181.987 189.508 C 181.815 189.614,181.759 189.480,181.863 189.210 C 181.967 188.940,181.858 188.370,181.621 187.943 C 181.384 187.516,181.185 186.927,181.178 186.635 C 181.172 186.342,180.966 185.861,180.721 185.566 C 180.476 185.271,180.369 184.879,180.482 184.696 C 180.595 184.513,180.458 183.813,180.177 183.141 C 179.896 182.469,179.667 181.637,179.667 181.293 C 179.667 180.948,179.492 180.667,179.278 180.667 C 179.064 180.667,178.975 180.580,179.081 180.475 C 179.186 180.369,179.128 179.807,178.951 179.225 C 178.460 177.607,178.281 176.916,178.096 175.920 C 178.002 175.418,177.794 175.088,177.633 175.187 C 177.472 175.287,177.426 175.147,177.529 174.877 C 177.633 174.606,177.530 174.036,177.300 173.609 C 177.070 173.183,176.850 172.533,176.811 172.167 C 176.693 171.047,176.389 170.013,175.872 168.977 C 175.601 168.434,175.534 168.084,175.723 168.201 C 175.941 168.336,175.933 168.164,175.700 167.729 C 175.498 167.352,175.333 166.734,175.333 166.355 C 175.333 165.977,175.203 165.667,175.043 165.667 C 174.884 165.667,174.762 165.404,174.772 165.083 C 174.800 164.164,174.283 162.000,174.034 162.000 C 173.911 162.000,173.792 161.737,173.770 161.417 C 173.748 161.096,173.510 159.971,173.242 158.917 C 172.974 157.862,172.815 157.000,172.889 157.000 C 172.963 157.000,172.853 156.681,172.644 156.292 C 172.436 155.902,172.228 155.265,172.182 154.875 C 171.993 153.282,171.210 150.333,170.976 150.333 C 170.838 150.333,170.767 149.958,170.817 149.500 C 170.867 149.042,170.770 148.667,170.601 148.667 C 170.432 148.667,170.389 148.514,170.504 148.327 C 170.620 148.140,170.526 147.427,170.296 146.743 C 170.066 146.060,169.847 145.275,169.809 145.000 C 169.575 143.295,169.237 141.810,169.050 141.667 C 168.836 141.502,168.649 140.639,168.617 139.667 C 168.607 139.392,168.449 138.567,168.265 137.835 C 168.081 137.102,167.871 136.240,167.798 135.918 C 167.726 135.596,167.587 134.996,167.491 134.583 C 167.394 134.171,167.226 133.233,167.118 132.500 C 167.010 131.767,166.827 131.092,166.711 131.000 C 166.510 130.841,166.451 130.582,166.183 128.667 C 166.119 128.208,166.032 127.796,165.991 127.750 C 165.950 127.704,165.879 127.517,165.833 127.333 C 165.787 127.150,165.715 126.888,165.672 126.750 C 165.630 126.612,165.591 126.087,165.586 125.583 C 165.581 125.079,165.479 124.667,165.360 124.667 C 165.240 124.667,165.136 124.404,165.128 124.083 C 165.094 122.771,164.034 116.992,163.739 116.514 C 163.546 116.202,163.457 115.704,163.166 113.333 C 162.924 111.360,162.746 110.174,162.665 110.000 C 162.622 109.908,162.605 109.721,162.627 109.583 C 162.649 109.446,162.508 109.333,162.314 109.333 C 162.120 109.333,162.053 109.183,162.167 109.000 C 162.280 108.817,162.205 108.667,162.000 108.667 C 161.795 108.667,161.720 108.517,161.833 108.334 C 162.088 107.921,161.315 106.783,160.295 106.069 C 159.411 105.450,155.629 105.245,154.329 105.746 M57.940 235.431 C 57.698 235.668,56.995 236.068,56.378 236.321 C 55.760 236.573,54.898 237.165,54.461 237.637 C 54.024 238.108,53.667 238.385,53.667 238.253 C 53.667 238.121,53.179 238.309,52.583 238.670 C 51.987 239.032,51.012 239.581,50.417 239.892 C 49.821 240.203,49.333 240.579,49.333 240.728 C 49.333 240.878,49.117 241.000,48.852 241.000 C 48.588 241.000,48.175 241.266,47.936 241.591 C 47.696 241.916,46.867 242.462,46.092 242.804 C 45.318 243.146,44.765 243.555,44.862 243.713 C 44.960 243.871,44.730 244.000,44.353 244.000 C 43.965 244.000,43.667 244.217,43.667 244.500 C 43.667 244.775,43.554 244.984,43.417 244.964 C 42.846 244.882,41.688 245.431,41.857 245.705 C 41.957 245.867,41.766 246.000,41.433 246.000 C 41.099 246.000,40.422 246.375,39.928 246.833 C 39.434 247.292,38.873 247.667,38.681 247.667 C 38.490 247.667,38.333 247.826,38.333 248.020 C 38.333 248.214,38.182 248.279,37.998 248.165 C 37.813 248.051,37.572 248.192,37.462 248.479 C 37.352 248.765,37.091 249.003,36.881 249.006 C 36.297 249.015,33.665 250.887,33.902 251.124 C 34.017 251.239,33.786 251.333,33.389 251.333 C 32.992 251.333,32.667 251.473,32.667 251.644 C 32.667 251.815,32.364 252.051,31.995 252.168 C 31.626 252.285,31.409 252.519,31.512 252.687 C 31.616 252.855,31.469 252.903,31.184 252.794 C 30.844 252.663,30.667 252.786,30.667 253.151 C 30.667 253.456,30.514 253.611,30.327 253.496 C 29.886 253.224,27.264 255.144,27.588 255.502 C 27.723 255.651,27.665 255.678,27.460 255.560 C 27.254 255.443,26.744 255.644,26.325 256.007 C 25.907 256.370,25.460 256.667,25.332 256.667 C 25.204 256.667,24.589 257.154,23.966 257.749 C 23.343 258.345,22.796 258.795,22.750 258.749 C 22.527 258.528,22.085 258.733,21.312 259.417 C 20.846 259.829,20.228 260.317,19.938 260.500 C 17.783 261.863,15.667 263.448,15.667 263.699 C 15.667 263.865,15.442 264.000,15.167 264.000 C 14.892 264.000,14.667 264.225,14.667 264.500 C 14.667 264.780,14.369 265.000,13.990 265.000 C 13.617 265.000,13.226 265.225,13.121 265.500 C 13.015 265.775,12.715 266.000,12.454 266.000 C 12.193 266.000,11.895 266.219,11.792 266.487 C 11.689 266.755,11.319 267.065,10.969 267.176 C 10.619 267.287,10.333 267.593,10.333 267.856 C 10.333 268.118,10.121 268.333,9.861 268.333 C 9.265 268.333,4.804 271.979,4.917 272.374 C 4.963 272.535,4.766 272.667,4.480 272.667 C 4.195 272.667,4.047 272.806,4.152 272.976 C 4.257 273.146,4.078 273.376,3.755 273.486 C 2.478 273.922,1.392 275.913,1.514 277.594 C 1.670 279.737,1.731 280.000,2.075 280.000 C 2.239 280.000,2.280 280.150,2.167 280.333 C 1.921 280.731,3.352 285.333,3.722 285.333 C 3.863 285.333,3.899 285.543,3.800 285.800 C 3.702 286.056,3.781 286.365,3.977 286.486 C 4.173 286.607,4.334 286.960,4.335 287.270 C 4.335 287.580,4.662 288.358,5.060 289.000 C 5.458 289.642,5.806 290.408,5.833 290.703 C 5.876 291.174,6.224 291.812,8.089 294.833 C 8.315 295.200,8.625 295.592,8.778 295.704 C 8.932 295.816,9.044 296.004,9.028 296.121 C 8.940 296.784,9.037 297.016,9.330 296.836 C 9.511 296.724,9.579 296.841,9.481 297.096 C 9.383 297.351,9.535 297.752,9.818 297.987 C 10.102 298.223,10.333 298.606,10.333 298.838 C 10.333 299.071,10.568 299.352,10.854 299.462 C 11.141 299.572,11.292 299.797,11.190 299.963 C 11.087 300.128,11.237 300.353,11.523 300.463 C 11.809 300.572,11.957 300.800,11.852 300.969 C 11.748 301.138,11.776 301.327,11.915 301.388 C 12.053 301.450,12.425 301.950,12.742 302.500 C 13.058 303.050,13.481 303.459,13.683 303.408 C 13.885 303.358,13.967 303.451,13.865 303.615 C 13.764 303.779,14.053 304.345,14.507 304.873 C 14.961 305.401,15.333 305.955,15.333 306.103 C 15.333 306.251,15.467 306.290,15.631 306.189 C 15.795 306.087,16.023 306.379,16.137 306.836 C 16.252 307.293,16.568 307.667,16.840 307.667 C 17.111 307.667,17.333 307.881,17.333 308.142 C 17.333 308.404,17.746 308.943,18.250 309.339 C 18.754 309.736,19.101 310.084,19.021 310.114 C 18.686 310.236,20.112 311.990,20.696 312.176 C 21.047 312.287,21.333 312.602,21.333 312.875 C 21.333 313.149,21.473 313.287,21.643 313.181 C 21.813 313.076,22.041 313.272,22.151 313.616 C 22.386 314.358,27.710 319.531,28.108 319.404 C 28.259 319.356,28.298 319.454,28.195 319.621 C 27.951 320.016,30.832 322.382,31.177 322.071 C 31.322 321.940,31.332 322.021,31.201 322.250 C 31.047 322.516,31.387 322.918,32.147 323.366 C 32.800 323.751,33.333 324.209,33.333 324.384 C 33.333 324.558,33.783 324.858,34.333 325.050 C 34.883 325.242,35.333 325.609,35.333 325.866 C 35.333 326.123,35.633 326.333,36.000 326.333 C 36.400 326.333,36.667 326.556,36.667 326.889 C 36.667 327.194,36.755 327.356,36.863 327.248 C 36.971 327.140,37.534 327.508,38.113 328.067 C 38.693 328.625,39.579 329.228,40.083 329.407 C 40.587 329.586,40.922 329.856,40.828 330.009 C 40.733 330.162,41.176 330.474,41.810 330.704 C 42.445 330.933,42.898 331.228,42.818 331.359 C 42.684 331.575,43.655 332.112,43.963 331.993 C 44.034 331.966,44.184 332.074,44.296 332.233 C 44.802 332.952,46.448 333.970,46.789 333.775 C 46.997 333.657,47.060 333.678,46.930 333.822 C 46.676 334.103,49.239 335.984,49.889 335.994 C 50.103 335.997,50.331 336.158,50.395 336.351 C 50.459 336.545,50.751 336.738,51.043 336.781 C 51.334 336.824,51.830 337.115,52.144 337.429 C 52.457 337.743,52.918 338.000,53.167 338.000 C 53.415 338.000,53.824 338.188,54.075 338.417 C 54.780 339.062,56.662 340.000,57.249 340.000 C 57.540 340.000,57.673 340.105,57.545 340.233 C 57.214 340.564,60.983 342.379,61.449 342.113 C 61.660 341.992,61.730 342.008,61.603 342.149 C 61.345 342.435,66.994 345.450,67.270 345.174 C 67.367 345.077,67.736 345.261,68.091 345.583 C 68.446 345.904,68.758 346.101,68.785 346.021 C 68.812 345.941,69.219 346.128,69.690 346.436 C 70.160 346.745,70.937 347.030,71.416 347.069 C 71.894 347.109,72.221 347.245,72.143 347.372 C 72.065 347.498,72.413 347.756,72.917 347.944 C 77.257 349.565,78.355 349.968,78.422 349.965 C 78.465 349.964,79.024 350.182,79.663 350.451 C 80.303 350.720,80.964 350.856,81.132 350.752 C 81.299 350.648,81.344 350.713,81.231 350.896 C 81.006 351.259,83.269 352.079,83.722 351.799 C 83.875 351.705,84.000 351.786,84.000 351.980 C 84.000 352.174,84.291 352.333,84.647 352.333 C 85.003 352.333,85.387 352.483,85.500 352.667 C 85.613 352.850,85.987 353.000,86.331 353.000 C 86.675 353.000,87.379 353.175,87.895 353.389 C 88.411 353.603,88.908 353.792,89.000 353.811 C 89.092 353.829,89.327 353.946,89.523 354.071 C 89.861 354.286,91.229 354.637,92.339 354.794 C 92.617 354.833,93.040 354.985,93.278 355.132 C 93.516 355.280,93.794 355.317,93.895 355.216 C 93.996 355.115,94.309 355.261,94.589 355.542 C 94.870 355.822,95.377 355.979,95.716 355.890 C 96.056 355.802,96.333 355.853,96.333 356.004 C 96.333 356.290,98.943 357.014,100.250 357.090 C 100.662 357.114,101.000 357.263,101.000 357.421 C 101.000 357.579,101.263 357.676,101.583 357.636 C 101.904 357.595,102.565 357.727,103.051 357.927 C 104.094 358.358,108.506 359.371,109.583 359.427 C 109.996 359.449,110.333 359.555,110.333 359.662 C 110.333 359.770,110.746 359.894,111.250 359.937 C 112.256 360.024,112.747 360.116,114.000 360.454 C 114.458 360.577,115.283 360.745,115.833 360.827 C 116.383 360.908,117.583 361.187,118.500 361.447 C 119.417 361.707,120.579 361.869,121.083 361.809 C 121.587 361.748,122.000 361.859,122.000 362.055 C 122.000 362.255,122.365 362.341,122.833 362.252 C 123.292 362.164,123.667 362.210,123.667 362.354 C 123.667 362.499,124.191 362.568,124.832 362.508 C 125.474 362.449,125.930 362.510,125.846 362.646 C 125.763 362.781,126.138 362.865,126.681 362.833 C 127.223 362.800,127.667 362.909,127.667 363.073 C 127.667 363.238,127.782 363.302,127.922 363.215 C 128.063 363.128,128.894 363.191,129.769 363.354 C 130.645 363.518,132.067 363.737,132.930 363.841 C 133.794 363.946,134.950 364.122,135.500 364.233 C 136.050 364.345,137.116 364.465,137.868 364.501 C 138.620 364.537,139.370 364.648,139.534 364.747 C 139.900 364.967,145.183 365.447,147.583 365.477 C 148.545 365.490,149.333 365.582,149.333 365.683 C 149.333 365.784,149.671 365.881,150.083 365.898 C 151.372 365.953,159.047 366.388,161.667 366.555 C 168.954 367.020,198.167 367.125,198.167 366.687 C 198.167 366.651,198.692 366.555,199.333 366.474 C 201.045 366.258,202.117 364.372,200.812 363.871 C 200.526 363.761,200.365 363.552,200.455 363.406 C 200.660 363.075,198.034 361.385,197.092 361.241 C 196.710 361.183,196.165 360.942,195.880 360.706 C 195.596 360.469,195.206 360.373,195.015 360.491 C 194.823 360.609,194.665 360.585,194.664 360.436 C 194.660 359.995,192.994 359.357,192.421 359.576 C 192.085 359.705,191.974 359.646,192.117 359.414 C 192.247 359.204,192.022 358.957,191.588 358.834 C 190.822 358.618,189.268 357.959,187.554 357.124 C 187.033 356.871,186.471 356.748,186.304 356.852 C 186.137 356.955,186.000 356.855,186.000 356.631 C 186.000 356.406,185.907 356.315,185.794 356.429 C 185.680 356.542,185.361 356.408,185.084 356.132 C 184.807 355.855,184.367 355.710,184.106 355.810 C 183.845 355.910,183.714 355.860,183.814 355.698 C 184.034 355.342,183.065 354.921,182.637 355.185 C 182.470 355.288,182.333 355.214,182.333 355.020 C 182.333 354.826,182.221 354.703,182.083 354.748 C 181.946 354.793,181.274 354.482,180.589 354.058 C 179.905 353.634,179.170 353.395,178.955 353.528 C 178.710 353.679,178.653 353.625,178.802 353.385 C 178.936 353.168,178.847 353.000,178.598 353.000 C 178.355 353.000,176.553 352.193,174.594 351.206 C 172.635 350.220,170.950 349.470,170.849 349.540 C 170.749 349.610,170.742 349.566,170.834 349.443 C 170.995 349.230,167.472 347.356,166.881 347.341 C 166.725 347.337,166.141 346.950,165.585 346.482 C 165.029 346.014,164.154 345.547,163.641 345.445 C 163.129 345.342,162.626 345.041,162.524 344.775 C 162.422 344.509,162.187 344.384,162.002 344.499 C 161.818 344.613,161.667 344.547,161.667 344.353 C 161.667 344.159,161.383 344.000,161.036 344.000 C 160.689 344.000,160.318 343.775,160.213 343.500 C 160.107 343.225,159.811 343.000,159.555 343.000 C 159.299 343.000,158.732 342.721,158.295 342.379 C 157.858 342.038,157.136 341.644,156.691 341.505 C 156.246 341.365,155.498 340.895,155.028 340.459 C 154.558 340.023,153.984 339.667,153.753 339.667 C 153.522 339.667,153.333 339.527,153.333 339.356 C 153.333 339.029,152.031 338.481,151.559 338.609 C 151.407 338.650,151.379 338.529,151.495 338.342 C 151.611 338.154,151.472 338.000,151.186 338.000 C 150.901 338.000,150.667 337.850,150.667 337.667 C 150.667 337.483,150.454 337.333,150.194 337.333 C 149.935 337.333,149.672 337.195,149.611 337.025 C 149.550 336.855,149.281 336.668,149.012 336.608 C 148.744 336.549,148.146 336.162,147.682 335.750 C 147.219 335.337,146.710 335.000,146.552 335.000 C 146.393 335.000,145.817 334.625,145.273 334.167 C 144.728 333.708,144.060 333.333,143.788 333.333 C 143.516 333.333,143.380 333.194,143.485 333.024 C 143.590 332.854,143.393 332.625,143.046 332.514 C 142.699 332.404,141.990 331.950,141.472 331.504 C 140.953 331.058,140.462 330.760,140.382 330.841 C 140.301 330.922,139.972 330.685,139.651 330.316 C 139.331 329.946,138.941 329.686,138.784 329.739 C 138.628 329.791,138.188 329.533,137.807 329.167 C 136.758 328.157,135.333 326.988,135.333 327.136 C 135.333 327.208,134.872 326.836,134.307 326.309 C 133.743 325.782,133.181 325.384,133.057 325.425 C 132.934 325.466,132.805 325.350,132.770 325.167 C 132.735 324.983,132.388 324.758,132.000 324.667 C 131.612 324.575,131.340 324.409,131.397 324.299 C 131.550 324.000,129.616 322.461,128.745 322.188 C 128.330 322.058,128.072 321.820,128.171 321.659 C 128.271 321.498,128.056 321.208,127.695 321.015 C 127.333 320.822,126.546 320.214,125.944 319.665 C 125.343 319.116,124.669 318.667,124.445 318.667 C 124.222 318.667,123.932 318.493,123.802 318.282 C 123.645 318.029,123.724 317.980,124.032 318.140 C 124.289 318.273,124.215 318.151,123.868 317.869 C 123.520 317.586,123.118 317.427,122.975 317.516 C 122.832 317.604,122.624 317.390,122.513 317.041 C 122.309 316.400,119.479 314.000,118.926 314.000 C 118.762 314.000,118.710 313.866,118.811 313.703 C 118.999 313.399,117.435 312.191,116.833 312.175 C 116.650 312.171,116.500 312.000,116.500 311.795 C 116.500 311.259,113.448 308.329,113.175 308.603 C 113.048 308.730,112.994 308.621,113.056 308.361 C 113.117 308.101,112.792 307.690,112.333 307.449 C 111.875 307.207,111.646 307.008,111.824 307.005 C 112.003 307.002,111.628 306.517,110.991 305.926 C 110.354 305.336,109.721 304.886,109.583 304.926 C 109.446 304.967,109.333 304.850,109.333 304.667 C 109.333 304.215,107.902 302.810,107.559 302.925 C 107.407 302.975,107.363 302.888,107.460 302.732 C 107.557 302.575,106.930 301.695,106.068 300.777 C 103.925 298.494,102.336 296.646,101.751 295.753 C 101.481 295.342,101.123 295.091,100.955 295.194 C 100.787 295.298,100.691 295.256,100.742 295.101 C 100.852 294.763,100.279 294.029,98.500 292.232 C 97.767 291.491,97.392 291.008,97.667 291.160 C 98.009 291.349,97.981 291.236,97.576 290.801 C 97.251 290.452,96.558 289.609,96.037 288.927 C 95.516 288.246,95.008 287.769,94.909 287.869 C 94.809 287.969,94.629 287.739,94.508 287.358 C 94.387 286.978,94.149 286.667,93.978 286.667 C 93.807 286.667,93.704 286.479,93.750 286.250 C 93.796 286.021,93.646 285.871,93.417 285.917 C 93.188 285.963,93.000 285.798,93.000 285.551 C 93.000 285.304,92.737 284.786,92.417 284.400 C 91.165 282.894,90.667 282.186,90.667 281.913 C 90.667 281.756,90.533 281.710,90.369 281.811 C 90.205 281.913,89.977 281.621,89.863 281.164 C 89.748 280.707,89.507 280.333,89.327 280.333 C 89.147 280.333,89.000 280.099,89.000 279.814 C 89.000 279.528,88.854 279.384,88.676 279.494 C 88.498 279.604,88.255 279.306,88.136 278.831 C 88.017 278.357,87.839 278.050,87.740 278.149 C 87.561 278.328,86.994 277.488,86.368 276.116 C 86.188 275.721,85.620 274.957,85.104 274.417 C 84.588 273.877,83.810 272.741,83.374 271.891 C 82.938 271.042,82.450 270.428,82.291 270.526 C 82.131 270.625,82.000 270.388,82.000 270.000 C 82.000 269.612,81.850 269.387,81.667 269.500 C 81.483 269.613,81.329 269.435,81.323 269.103 C 81.310 268.367,80.517 267.261,80.217 267.561 C 80.098 267.680,80.000 267.462,80.000 267.075 C 80.000 266.689,79.827 266.266,79.615 266.135 C 79.361 265.977,79.322 266.045,79.500 266.333 C 79.680 266.624,79.640 266.689,79.379 266.528 C 79.165 266.396,79.076 266.146,79.182 265.974 C 79.289 265.802,79.141 265.427,78.855 265.140 C 78.568 264.854,78.333 264.405,78.333 264.143 C 78.333 263.881,78.183 263.667,78.000 263.667 C 77.817 263.667,77.667 263.470,77.667 263.230 C 77.667 262.989,77.334 262.435,76.927 261.998 C 76.520 261.561,76.159 261.017,76.126 260.790 C 76.093 260.562,75.756 260.043,75.377 259.637 C 74.999 259.231,74.759 258.787,74.843 258.651 C 74.927 258.515,74.772 258.317,74.498 258.212 C 74.224 258.107,74.000 257.791,74.000 257.510 C 74.000 257.230,73.850 257.000,73.667 257.000 C 73.483 257.000,73.333 256.711,73.333 256.357 C 73.333 256.004,73.071 255.452,72.750 255.131 C 72.429 254.810,72.146 254.462,72.122 254.357 C 71.916 253.482,71.549 252.667,71.361 252.667 C 71.236 252.667,70.945 252.143,70.713 251.503 C 70.482 250.864,70.112 250.151,69.890 249.920 C 69.669 249.689,69.207 248.867,68.864 248.092 C 68.521 247.318,68.113 246.764,67.957 246.860 C 67.802 246.956,67.749 246.839,67.841 246.601 C 67.932 246.362,67.668 245.792,67.253 245.333 C 66.839 244.875,66.451 244.200,66.390 243.833 C 66.330 243.467,66.034 242.792,65.732 242.333 C 65.192 241.512,65.124 241.347,65.042 240.647 C 65.019 240.453,64.827 240.401,64.615 240.532 C 64.385 240.674,64.320 240.624,64.455 240.406 C 64.658 240.077,64.187 239.024,62.949 237.042 C 62.703 236.648,62.237 236.242,61.913 236.139 C 61.589 236.036,61.399 235.830,61.491 235.681 C 61.910 235.004,58.614 234.772,57.940 235.431 " stroke="none" fill="#443cbc" fill-rule="evenodd"></path><path id="path1" d="M241.532 262.333 C 242.190 263.250,242.791 264.000,242.867 264.000 C 243.118 264.000,240.839 260.679,240.584 260.673 C 240.447 260.669,240.873 261.417,241.532 262.333 M243.513 265.250 C 244.630 266.988,245.000 267.481,245.000 267.234 C 245.000 266.914,243.296 264.333,243.084 264.333 C 242.996 264.333,243.189 264.746,243.513 265.250 M180.083 367.247 C 181.321 367.311,183.346 367.311,184.583 367.247 C 185.821 367.183,184.808 367.131,182.333 367.131 C 179.858 367.131,178.846 367.183,180.083 367.247 " stroke="none" fill="#483cbc" fill-rule="evenodd"></path><path id="path2" d="M241.532 262.333 C 242.190 263.250,242.791 264.000,242.867 264.000 C 243.118 264.000,240.839 260.679,240.584 260.673 C 240.447 260.669,240.873 261.417,241.532 262.333 M243.513 265.250 C 244.630 266.988,245.000 267.481,245.000 267.234 C 245.000 266.914,243.296 264.333,243.084 264.333 C 242.996 264.333,243.189 264.746,243.513 265.250 M180.083 367.247 C 181.321 367.311,183.346 367.311,184.583 367.247 C 185.821 367.183,184.808 367.131,182.333 367.131 C 179.858 367.131,178.846 367.183,180.083 367.247 " stroke="none" fill="#483cbc" fill-rule="evenodd"></path><path id="path3" d="M241.532 262.333 C 242.190 263.250,242.791 264.000,242.867 264.000 C 243.118 264.000,240.839 260.679,240.584 260.673 C 240.447 260.669,240.873 261.417,241.532 262.333 M243.513 265.250 C 244.630 266.988,245.000 267.481,245.000 267.234 C 245.000 266.914,243.296 264.333,243.084 264.333 C 242.996 264.333,243.189 264.746,243.513 265.250 M180.083 367.247 C 181.321 367.311,183.346 367.311,184.583 367.247 C 185.821 367.183,184.808 367.131,182.333 367.131 C 179.858 367.131,178.846 367.183,180.083 367.247 " stroke="none" fill="#483cbc" fill-rule="evenodd"></path><path id="path4" d="M241.532 262.333 C 242.190 263.250,242.791 264.000,242.867 264.000 C 243.118 264.000,240.839 260.679,240.584 260.673 C 240.447 260.669,240.873 261.417,241.532 262.333 M243.513 265.250 C 244.630 266.988,245.000 267.481,245.000 267.234 C 245.000 266.914,243.296 264.333,243.084 264.333 C 242.996 264.333,243.189 264.746,243.513 265.250 M180.083 367.247 C 181.321 367.311,183.346 367.311,184.583 367.247 C 185.821 367.183,184.808 367.131,182.333 367.131 C 179.858 367.131,178.846 367.183,180.083 367.247 " stroke="none" fill="#483cbc" fill-rule="evenodd"></path></g></svg>